<mxfile host="app.diagrams.net" modified="2025-10-25T00:00:00.000Z" agent="Claude Code" version="24.0.0">
  <diagram name="マルチアカウント全体構成図" id="multi-account-architecture">
    <mxGraphModel dx="2000" dy="1200" grid="1" gridSize="10" guides="1" tooltips="1" connect="1" arrows="1" fold="1" page="1" pageScale="1" pageWidth="1654" pageHeight="2339" math="0" shadow="0">
      <root>
        <mxCell id="0" />
        <mxCell id="1" parent="0" />

        <!-- Title -->
        <mxCell id="title" value="役所設備管理システム - マルチアカウント全体構成図" style="text;html=1;strokeColor=none;fillColor=none;align=center;verticalAlign=middle;whiteSpace=wrap;rounded=0;fontSize=24;fontStyle=1" vertex="1" parent="1">
          <mxGeometry x="400" y="40" width="800" height="40" as="geometry" />
        </mxCell>

        <!-- 拠点 -->
        <mxCell id="onprem-bg" value="拠点（20拠点）" style="swimlane;whiteSpace=wrap;html=1;fillColor=#ffe6e6;strokeColor=#d79b00;fontSize=16;fontStyle=1" vertex="1" parent="1">
          <mxGeometry x="80" y="120" width="280" height="200" as="geometry" />
        </mxCell>

        <mxCell id="branch-terminals" value="拠点端末&#xa;（各拠点100台）&#xa;&#xa;合計2,000台" style="rounded=1;whiteSpace=wrap;html=1;fillColor=#fff2cc;strokeColor=#d6b656;fontSize=14;" vertex="1" parent="onprem-bg">
          <mxGeometry x="40" y="50" width="200" height="120" as="geometry" />
        </mxCell>

        <!-- Shared Account -->
        <mxCell id="shared-bg" value="Shared Account（共有基盤）" style="swimlane;whiteSpace=wrap;html=1;fillColor=#e6f3ff;strokeColor=#01579b;fontSize=18;fontStyle=1" vertex="1" parent="1">
          <mxGeometry x="420" y="120" width="760" height="400" as="geometry" />
        </mxCell>

        <mxCell id="tgw" value="Transit Gateway&#xa;&#xa;ネットワークハブ" style="rounded=1;whiteSpace=wrap;html=1;fillColor=#ffcc80;strokeColor=#d84315;fontSize=14;fontStyle=1" vertex="1" parent="shared-bg">
          <mxGeometry x="300" y="80" width="200" height="100" as="geometry" />
        </mxCell>

        <mxCell id="dx-gw" value="Direct Connect&#xa;Gateway" style="rounded=1;whiteSpace=wrap;html=1;fillColor=#aed581;strokeColor=#558b2f;fontSize=12;fontStyle=1" vertex="1" parent="shared-bg">
          <mxGeometry x="60" y="80" width="180" height="80" as="geometry" />
        </mxCell>

        <mxCell id="cloudtrail" value="CloudTrail&#xa;（組織全体）" style="rounded=1;whiteSpace=wrap;html=1;fillColor=#f8bbd0;strokeColor=#880e4f;fontSize=11;" vertex="1" parent="shared-bg">
          <mxGeometry x="60" y="250" width="150" height="80" as="geometry" />
        </mxCell>

        <mxCell id="config" value="AWS Config&#xa;（組織全体）" style="rounded=1;whiteSpace=wrap;html=1;fillColor=#f48fb1;strokeColor=#880e4f;fontSize=11;" vertex="1" parent="shared-bg">
          <mxGeometry x="240" y="250" width="150" height="80" as="geometry" />
        </mxCell>

        <mxCell id="guardduty" value="GuardDuty&#xa;（組織全体）" style="rounded=1;whiteSpace=wrap;html=1;fillColor=#ec407a;strokeColor=#880e4f;fontSize=11;" vertex="1" parent="shared-bg">
          <mxGeometry x="420" y="250" width="150" height="80" as="geometry" />
        </mxCell>

        <mxCell id="securityhub" value="Security Hub&#xa;（組織全体）" style="rounded=1;whiteSpace=wrap;html=1;fillColor=#e91e63;strokeColor=#880e4f;fontSize=11;" vertex="1" parent="shared-bg">
          <mxGeometry x="600" y="250" width="130" height="80" as="geometry" />
        </mxCell>

        <!-- Service Account -->
        <mxCell id="service-bg" value="Service Account（サービスアカウント）" style="swimlane;whiteSpace=wrap;html=1;fillColor=#ffe6e6;strokeColor=#b85450;fontSize=18;fontStyle=1" vertex="1" parent="1">
          <mxGeometry x="1240" y="120" width="500" height="800" as="geometry" />
        </mxCell>

        <mxCell id="vpc" value="Service VPC" style="swimlane;whiteSpace=wrap;html=1;fillColor=#e8f5e9;strokeColor=#2e7d32;fontSize=14;fontStyle=1" vertex="1" parent="service-bg">
          <mxGeometry x="40" y="60" width="420" height="700" as="geometry" />
        </mxCell>

        <mxCell id="alb-internal" value="ALB（内部）&#xa;業務アプリ" style="rounded=1;whiteSpace=wrap;html=1;fillColor=#ef9a9a;strokeColor=#b71c1c;fontSize=11;" vertex="1" parent="vpc">
          <mxGeometry x="40" y="50" width="130" height="60" as="geometry" />
        </mxCell>

        <mxCell id="alb-public" value="ALB（パブリック）&#xa;事業者アプリ" style="rounded=1;whiteSpace=wrap;html=1;fillColor=#e57373;strokeColor=#b71c1c;fontSize=11;" vertex="1" parent="vpc">
          <mxGeometry x="250" y="50" width="130" height="60" as="geometry" />
        </mxCell>

        <mxCell id="ecs1" value="ECS Fargate&#xa;業務API" style="rounded=1;whiteSpace=wrap;html=1;fillColor=#a5d6a7;strokeColor=#1b5e20;fontSize=11;" vertex="1" parent="vpc">
          <mxGeometry x="40" y="180" width="100" height="80" as="geometry" />
        </mxCell>

        <mxCell id="ecs2" value="ECS Fargate&#xa;事業者API" style="rounded=1;whiteSpace=wrap;html=1;fillColor=#81c784;strokeColor=#1b5e20;fontSize=11;" vertex="1" parent="vpc">
          <mxGeometry x="160" y="180" width="100" height="80" as="geometry" />
        </mxCell>

        <mxCell id="ecs3" value="ECS Fargate&#xa;バッチ" style="rounded=1;whiteSpace=wrap;html=1;fillColor=#66bb6a;strokeColor=#1b5e20;fontSize=11;" vertex="1" parent="vpc">
          <mxGeometry x="280" y="180" width="100" height="80" as="geometry" />
        </mxCell>

        <mxCell id="rds" value="RDS PostgreSQL 14&#xa;&#xa;マルチAZ構成" style="rounded=1;whiteSpace=wrap;html=1;fillColor=#ffb74d;strokeColor=#d84315;fontSize=11;fontStyle=1" vertex="1" parent="vpc">
          <mxGeometry x="120" y="330" width="180" height="100" as="geometry" />
        </mxCell>

        <!-- Arrows -->
        <mxCell id="arrow1" style="edgeStyle=orthogonalEdgeStyle;rounded=0;orthogonalLoop=1;jettySize=auto;html=1;strokeWidth=3;strokeColor=#ff6f00;endArrow=block;endFill=1;" edge="1" parent="1" source="branch-terminals" target="dx-gw">
          <mxGeometry relative="1" as="geometry" />
        </mxCell>

        <mxCell id="arrow2" style="edgeStyle=orthogonalEdgeStyle;rounded=0;orthogonalLoop=1;jettySize=auto;html=1;strokeWidth=2;strokeColor=#558b2f;endArrow=block;endFill=1;" edge="1" parent="1" source="dx-gw" target="tgw">
          <mxGeometry relative="1" as="geometry" />
        </mxCell>

        <mxCell id="arrow3" style="edgeStyle=orthogonalEdgeStyle;rounded=0;orthogonalLoop=1;jettySize=auto;html=1;strokeWidth=3;strokeColor=#ff6f00;endArrow=block;endFill=1;" edge="1" parent="1" source="tgw" target="vpc">
          <mxGeometry relative="1" as="geometry" />
        </mxCell>

        <mxCell id="arrow4" style="edgeStyle=orthogonalEdgeStyle;rounded=0;orthogonalLoop=1;jettySize=auto;html=1;strokeWidth=2;strokeColor=#2e7d32;endArrow=block;endFill=1;" edge="1" parent="1" source="alb-internal" target="ecs1">
          <mxGeometry relative="1" as="geometry" />
        </mxCell>

        <mxCell id="arrow5" style="edgeStyle=orthogonalEdgeStyle;rounded=0;orthogonalLoop=1;jettySize=auto;html=1;strokeWidth=2;strokeColor=#2e7d32;endArrow=block;endFill=1;" edge="1" parent="1" source="alb-public" target="ecs2">
          <mxGeometry relative="1" as="geometry" />
        </mxCell>

        <mxCell id="arrow6" style="edgeStyle=orthogonalEdgeStyle;rounded=0;orthogonalLoop=1;jettySize=auto;html=1;strokeWidth=2;strokeColor=#d84315;endArrow=block;endFill=1;" edge="1" parent="1" source="ecs1" target="rds">
          <mxGeometry relative="1" as="geometry" />
        </mxCell>

        <mxCell id="arrow7" style="edgeStyle=orthogonalEdgeStyle;rounded=0;orthogonalLoop=1;jettySize=auto;html=1;strokeWidth=2;strokeColor=#d84315;endArrow=block;endFill=1;" edge="1" parent="1" source="ecs2" target="rds">
          <mxGeometry relative="1" as="geometry" />
        </mxCell>

        <mxCell id="arrow8" style="edgeStyle=orthogonalEdgeStyle;rounded=0;orthogonalLoop=1;jettySize=auto;html=1;strokeWidth=2;strokeColor=#d84315;endArrow=block;endFill=1;" edge="1" parent="1" source="ecs3" target="rds">
          <mxGeometry relative="1" as="geometry" />
        </mxCell>

        <!-- Legend -->
        <mxCell id="legend-bg" value="凡例" style="swimlane;whiteSpace=wrap;html=1;fillColor=#f5f5f5;strokeColor=#666666;fontSize=14;fontStyle=1" vertex="1" parent="1">
          <mxGeometry x="80" y="560" width="300" height="200" as="geometry" />
        </mxCell>

        <mxCell id="legend1" value="" style="rounded=0;whiteSpace=wrap;html=1;fillColor=#e6f3ff;strokeColor=#01579b;" vertex="1" parent="legend-bg">
          <mxGeometry x="20" y="40" width="30" height="20" as="geometry" />
        </mxCell>

        <mxCell id="legend1-text" value="Shared Account（共有基盤）" style="text;html=1;strokeColor=none;fillColor=none;align=left;verticalAlign=middle;whiteSpace=wrap;rounded=0;fontSize=11;" vertex="1" parent="legend-bg">
          <mxGeometry x="60" y="35" width="200" height="30" as="geometry" />
        </mxCell>

        <mxCell id="legend2" value="" style="rounded=0;whiteSpace=wrap;html=1;fillColor=#ffe6e6;strokeColor=#b85450;" vertex="1" parent="legend-bg">
          <mxGeometry x="20" y="70" width="30" height="20" as="geometry" />
        </mxCell>

        <mxCell id="legend2-text" value="Service Account（サービス）" style="text;html=1;strokeColor=none;fillColor=none;align=left;verticalAlign=middle;whiteSpace=wrap;rounded=0;fontSize=11;" vertex="1" parent="legend-bg">
          <mxGeometry x="60" y="65" width="200" height="30" as="geometry" />
        </mxCell>

        <mxCell id="legend3" value="" style="endArrow=block;html=1;strokeWidth=3;strokeColor=#ff6f00;endFill=1;" edge="1" parent="legend-bg">
          <mxGeometry width="50" height="50" relative="1" as="geometry">
            <mxPoint x="20" y="110" as="sourcePoint" />
            <mxPoint x="50" y="110" as="targetPoint" />
          </mxGeometry>
        </mxCell>

        <mxCell id="legend3-text" value="拠点接続（Direct Connect）" style="text;html=1;strokeColor=none;fillColor=none;align=left;verticalAlign=middle;whiteSpace=wrap;rounded=0;fontSize=11;" vertex="1" parent="legend-bg">
          <mxGeometry x="60" y="95" width="200" height="30" as="geometry" />
        </mxCell>

        <mxCell id="legend4" value="" style="endArrow=block;html=1;strokeWidth=2;strokeColor=#880e4f;endFill=1;dashed=1;" edge="1" parent="legend-bg">
          <mxGeometry width="50" height="50" relative="1" as="geometry">
            <mxPoint x="20" y="150" as="sourcePoint" />
            <mxPoint x="50" y="150" as="targetPoint" />
          </mxGeometry>
        </mxCell>

        <mxCell id="legend4-text" value="監査ログ収集" style="text;html=1;strokeColor=none;fillColor=none;align=left;verticalAlign=middle;whiteSpace=wrap;rounded=0;fontSize=11;" vertex="1" parent="legend-bg">
          <mxGeometry x="60" y="135" width="200" height="30" as="geometry" />
        </mxCell>

      </root>
    </mxGraphModel>
  </diagram>
</mxfile>
